# xmcd
#
# Track frame offsets: 
#        150
#        13528
#        29612
#        44154
#        67088
#        80097
#        94518
#        105555
#        118091
#        136707
#
# Disc length: 2059 seconds
#
# Revision: 0
# Processed by: cddbd v1.5.2PL0 Copyright (c) Steve Scherf et al.
# Submitted via: ExactAudioCopy v1.0b2
#
DISCID=8608090a
DTITLE=Wild Boogie Combo - Blues
DYEAR=2012
DGENRE=rockabilly
TTITLE0=Country Blues In My Bag
TTITLE1=I Believe In You
TTITLE2=Yesterday I Talked To My Bottle Baby
TTITLE3=Bad Son Good Mother
TTITLE4=Oh Lord!
TTITLE5=She Breaks Me Down
TTITLE6=Save Your Soul!
TTITLE7=Rats In Town
TTITLE8=Hard Love Ways
TTITLE9=They Call Me Earth Boy.
EXTD=
EXTT0=
EXTT1=
EXTT2=
EXTT3=
EXTT4=
EXTT5=
EXTT6=
EXTT7=
EXTT8=
EXTT9=
PLAYORDER=
